<?xml version="1.0" encoding="UTF-8"?>
<svg id="Layer_1" xmlns="http://www.w3.org/2000/svg" version="1.1" viewBox="0 0 693 295.1">
  <!-- Generator: Adobe Illustrator 29.1.0, SVG Export Plug-In . SVG Version: 2.1.0 Build 142)  -->
  <path d="M135.7,120.3c-5.1-50.6,0-110.1,28.2-91.5,18,11.8-2.2,92.5-2.2,92.5" fill="#fff" stroke="#231f20" stroke-linecap="round" stroke-linejoin="round"/>
  <path d="M85.7,135.2c-27.8,16.4-33.8,54.5-62.8,71.6-13.1,7.8-28.6,30.9-19.9,37.6,8.8,6.7,76.5,18,104.8,11.7,38.7-8.6,65.5,22.7,103.2,12.3,48.7-13.4,63.3,4.7,89.6,8,40.3,5.1,88.3-8.6,123.4,6.8,39.9,17.6,118.6,12.2,155.9-.1,14.5-4.8,70.3-12.9,97.5-23.4,27.3-10.4,16-30.1-23.8-39.2-39.8-9.1-57.7-98.9-163.5-122-135-29.4-186.2,44.8-253.6,41.1-67.4-3.7-78.4-47.3-150.9-4.6Z" fill="#ed1c24" stroke="#231f20" stroke-linecap="round" stroke-linejoin="round"/>
  <path d="M103.7,152.9c-26.8-39.4-47.7-93.9-17.5-96.1,23.2-1.7,39.6,79.6,39.6,79.6" fill="#fff" stroke="#231f20" stroke-linecap="round" stroke-linejoin="round"/>
  <path d="M511.9,132.3c-19.7-14.8-39.5-82.2-19-92.4,20.7-10.3,30.4,30.4,30.4,30.4,0,0-7.2-68.5,13-69.8,20.3-1.3,16.1,66.4,16.1,66.4,0,0,26.5-61.3,47.2-51.9,23.7,10.8-24.1,69.1-24.1,69.1,0,0,36.3-24.5,46.7-4.2,15.3,29.8-49.2,48.8-87.5,58.6" fill="#fff" stroke="#231f20" stroke-linecap="round" stroke-linejoin="round"/>
  <circle cx="180.3" cy="180.6" r="8.9" fill="#fff"/>
  <circle cx="346.5" cy="257.7" r="8.9" fill="#fff"/>
  <circle cx="467.9" cy="216.1" r="8.9" fill="#fff"/>
  <circle cx="595.5" cy="257.7" r="8.9" fill="#fff"/>
  <circle cx="230.9" cy="228.9" r="14.4" fill="#fff"/>
  <circle cx="507.5" cy="252.4" r="20.6" fill="#fff"/>
  <circle cx="107.5" cy="220" r="8.9" fill="#fff"/>
  <circle cx="384" cy="211" r="8.9" fill="#fff"/>
  <circle cx="419.5" cy="257.7" r="8.9" fill="#fff"/>
  <circle cx="171.4" cy="243.3" r="8.9" fill="#fff"/>
</svg>