<?xml version="1.0" encoding="UTF-8"?>
<svg id="Layer_1" xmlns="http://www.w3.org/2000/svg" version="1.1" viewBox="0 0 1920 1080">
  <!-- Generator: Adobe Illustrator 29.1.0, SVG Export Plug-In . SVG Version: 2.1.0 Build 142)  -->
  <path d="M968.8,498.4c-1.7-16.5,0-35.9,9.2-29.8,5.9,3.9-.7,30.1-.7,30.1" fill="#fff" stroke="#231f20" stroke-linecap="round" stroke-linejoin="round"/>
  <path d="M952.5,503.3c-9.1,5.3-11,17.8-20.5,23.4-4.3,2.5-9.3,10.1-6.5,12.3,2.9,2.2,24.9,5.9,34.2,3.8,12.6-2.8,21.3,7.4,33.6,4s20.6,1.5,29.2,2.6c13.2,1.7,28.8-2.8,40.2,2.2,13,5.7,38.7,4,50.8,0,4.7-1.6,22.9-4.2,31.8-7.6,8.9-3.4,5.2-9.8-7.8-12.8-13-3-18.8-32.3-53.3-39.8-44-9.6-60.7,14.6-82.7,13.4-22-1.2-25.5-15.4-49.2-1.5Z" fill="#ed1c24" stroke="#231f20" stroke-linecap="round" stroke-linejoin="round"/>
  <path d="M958.4,509.1c-8.8-12.8-15.6-30.6-5.7-31.3,7.6-.5,12.9,25.9,12.9,25.9" fill="#fff" stroke="#231f20" stroke-linecap="round" stroke-linejoin="round"/>
  <path d="M1091.5,502.3c-6.4-4.8-12.9-26.8-6.2-30.1s9.9,9.9,9.9,9.9c0,0-2.4-22.3,4.2-22.7s5.2,21.6,5.2,21.6c0,0,8.6-20,15.4-16.9,7.7,3.5-7.9,22.5-7.9,22.5,0,0,11.8-8,15.2-1.4,5,9.7-16,15.9-28.5,19.1" fill="#fff" stroke="#231f20" stroke-linecap="round" stroke-linejoin="round"/>
  <circle cx="983.4" cy="518.1" r="2.9" fill="#fff"/>
  <circle cx="1037.5" cy="543.2" r="2.9" fill="#fff"/>
  <circle cx="1077.1" cy="529.7" r="2.9" fill="#fff"/>
  <circle cx="1118.7" cy="543.2" r="2.9" fill="#fff"/>
  <circle cx="999.9" cy="533.8" r="4.7" fill="#fff"/>
  <circle cx="1090" cy="541.5" r="6.7" fill="#fff"/>
  <circle cx="959.6" cy="530.9" r="2.9" fill="#fff"/>
  <circle cx="1049.8" cy="528" r="2.9" fill="#fff"/>
  <circle cx="1061.3" cy="543.2" r="2.9" fill="#fff"/>
  <circle cx="980.5" cy="538.5" r="2.9" fill="#fff"/>
</svg>
